<svg width="27" height="26" viewBox="0 0 27 26" fill="none" xmlns="http://www.w3.org/2000/svg">
<path d="M3.83243 6.58353C4.52935 6.10847 5.57992 6.19958 6.20567 6.70356L5.48799 5.6862C4.91043 4.88288 5.11729 4.01375 5.94173 3.44976C6.76617 2.88794 9.10234 4.39842 9.10234 4.39842C8.51959 3.58714 8.62858 2.55894 9.46043 1.98989C10.2923 1.42301 11.44 1.61896 12.0227 2.43168L19.7482 13.0752L18.7636 22.3847L10.5466 19.4621L3.37943 9.09835C2.7915 8.28201 2.99465 7.15619 3.83243 6.58353Z" fill="#90603E"/>
<path d="M2.22622 12.5047C2.22622 12.5047 1.38695 11.3116 2.61101 10.4938C3.83359 9.67605 4.67212 10.8684 4.67212 10.8684L8.56523 16.4056C8.69943 16.1873 8.84622 15.9718 9.01007 15.7592L3.60672 8.07518C3.60672 8.07518 2.76819 6.88285 3.99151 6.06506C5.21408 5.24727 6.05261 6.43961 6.05261 6.43961L11.1349 13.6681C11.324 13.5177 11.5175 13.3666 11.7169 13.2183L5.825 4.83729C5.825 4.83729 4.98647 3.64496 6.20979 2.82717C7.43236 2.00938 8.27089 3.20172 8.27089 3.20172L14.1628 11.5813C14.3793 11.4519 14.5936 11.3398 14.8086 11.2212L9.30145 3.38899C9.30145 3.38899 8.46292 2.19666 9.68549 1.37887C10.9081 0.561082 11.7466 1.75342 11.7466 1.75342L17.5696 10.0354L18.4548 11.295C14.7864 13.7491 14.4372 18.3659 16.5331 21.3471C16.952 21.9436 17.5637 21.5351 17.5637 21.5351C15.0481 17.9566 15.8162 13.9356 19.4854 11.4823L18.4037 6.20244C18.4037 6.20244 17.9996 4.81126 19.4253 4.41647C20.8518 4.0224 21.2566 5.41358 21.2566 5.41358L22.5059 9.0318C23.0011 10.4664 23.5283 11.8959 24.2259 13.248C26.1958 17.0658 25.0192 21.8105 21.3048 24.2957C17.253 27.005 11.714 25.9978 8.93519 22.047L2.22622 12.5047Z" fill="#AF7E57"/>
<path d="M9.12438 23.1381C6.15876 23.1381 3.16201 20.2154 3.16201 17.3232C3.16201 16.9233 2.86174 16.6001 2.45174 16.6001C2.04175 16.6001 1.6792 16.9233 1.6792 17.3232C1.6792 21.6616 4.67596 24.5842 9.12438 24.5842C9.53438 24.5842 9.86579 24.2306 9.86579 23.8308C9.86579 23.4309 9.53438 23.1381 9.12438 23.1381Z" fill="#5DADEC"/>
<path d="M5.4181 24.5539C3.19389 24.5539 1.71108 23.1077 1.71108 20.9385C1.71108 20.5387 1.37967 20.2155 0.969676 20.2155C0.559679 20.2155 0.228271 20.5387 0.228271 20.9385C0.228271 23.8308 2.45248 26 5.4181 26C5.8281 26 6.15951 25.6768 6.15951 25.2769C6.15951 24.8771 5.8281 24.5539 5.4181 24.5539ZM18.022 1.41577C17.6127 1.41577 17.2806 1.7397 17.2806 2.13884C17.2806 2.53797 17.6127 2.8619 18.022 2.8619C20.9876 2.8619 23.9532 5.45699 23.9532 8.64643C23.9532 9.04556 24.2854 9.3695 24.6946 9.3695C25.1039 9.3695 25.436 9.04556 25.436 8.64643C25.436 4.65944 22.4704 1.41577 18.022 1.41577Z" fill="#5DADEC"/>
<path d="M21.729 0C21.3197 0 20.9875 0.293565 20.9875 0.692697C20.9875 1.09183 21.3197 1.44613 21.729 1.44613C23.9532 1.44613 25.4048 3.05495 25.4048 5.03109C25.4048 5.43022 25.7674 5.75416 26.1774 5.75416C26.5874 5.75416 26.8876 5.43022 26.8876 5.03109C26.8876 2.25669 24.6946 0 21.729 0Z" fill="#5DADEC"/>
</svg>
