<svg width="25" height="22" viewBox="0 0 25 22" fill="none" xmlns="http://www.w3.org/2000/svg">
<path d="M9.06797 19.1864C8.87745 20.6736 7.48653 21.2061 5.96169 21.2061C4.43684 21.2061 3.35517 20.0004 3.54569 18.5132L4.23597 12.4543C4.42649 10.9672 5.81742 9.76147 7.34226 9.76147C8.8671 9.76147 11.807 9.76147 9.75826 12.4543C7.70949 15.1472 9.06797 19.1864 9.06797 19.1864Z" fill="#BE1931"/>
<path d="M24.8875 8.41515C24.8875 13.0617 23.8217 16.8303 22.506 16.8303C21.191 16.8303 8.38965 13.0617 8.38965 8.41515C8.38965 3.76797 21.191 0 22.506 0C23.8217 0 24.8875 3.76797 24.8875 8.41515Z" fill="#CCD6DD"/>
<path d="M22.506 16.8303C23.8213 16.8303 24.8875 13.0627 24.8875 8.41515C24.8875 3.76759 23.8213 0 22.506 0C21.1907 0 20.1245 3.76759 20.1245 8.41515C20.1245 13.0627 21.1907 16.8303 22.506 16.8303Z" fill="#66757F"/>
<path d="M12.5316 13.1276L2.86763 12.4544C-0.583805 12.4544 -0.583805 4.37585 2.86763 4.37585L12.5316 3.70264C10.4608 5.72227 10.4608 11.108 12.5316 13.1276Z" fill="#DD2E44"/>
<path d="M21.7815 11.3423C22.3534 11.3423 22.817 10.0318 22.817 8.41516C22.817 6.79856 22.3534 5.48804 21.7815 5.48804C21.2097 5.48804 20.7461 6.79856 20.7461 8.41516C20.7461 10.0318 21.2097 11.3423 21.7815 11.3423Z" fill="#99AAB5"/>
</svg>
